<?xml version="1.0" encoding="UTF-8"?>
<svg xmlns="http://www.w3.org/2000/svg" width="240" height="48" viewBox="0 0 240 48" role="img" aria-label="糖果的博客 cyber logo">
  <defs>
    <linearGradient id="neon" x1="0" y1="0" x2="1" y2="1">
      <stop offset="0" stop-color="#7C4DFF"/>
      <stop offset="0.55" stop-color="#00E5FF"/>
      <stop offset="1" stop-color="#29F5A6"/>
    </linearGradient>

    <filter id="glow" x="-60%" y="-90%" width="220%" height="280%">
      <feGaussianBlur stdDeviation="2.8" result="b"/>
      <feColorMatrix in="b" type="matrix" values="
        1 0 0 0 0
        0 1 0 0 0
        0 0 1 0 0
        0 0 0 0.9 0" result="g"/>
      <feMerge>
        <feMergeNode in="g"/>
        <feMergeNode in="SourceGraphic"/>
      </feMerge>
    </filter>

    <filter id="shadow" x="-40%" y="-50%" width="180%" height="220%">
      <feDropShadow dx="0" dy="2" stdDeviation="2" flood-color="#000" flood-opacity="0.35"/>
    </filter>

    <!-- Candy stripes clip -->
    <clipPath id="candyClip">
      <circle cx="18" cy="18" r="10.2"/>
    </clipPath>
  </defs>

  <!-- icon: circular candy (clearer at small sizes) -->
  <g transform="translate(2,6)" filter="url(#shadow)">
    <!-- chip background -->
    <rect x="0" y="0" width="36" height="36" rx="12" fill="#070A12"/>
    <rect x="0" y="0" width="36" height="36" rx="12" fill="url(#neon)" opacity="0.12"/>

    <!-- candy disc -->
    <circle cx="18" cy="18" r="10.8" fill="#070A12" opacity="0.7"/>
    <circle cx="18" cy="18" r="10.2" fill="url(#neon)" opacity="0.95" filter="url(#glow)"/>

    <!-- diagonal stripes (clipped to disc) -->
    <g clip-path="url(#candyClip)" opacity="0.48">
      <rect x="-2" y="8" width="44" height="3" rx="1.5" fill="#070A12" transform="rotate(-25 18 18)"/>
      <rect x="-2" y="15" width="44" height="3" rx="1.5" fill="#070A12" transform="rotate(-25 18 18)"/>
      <rect x="-2" y="22" width="44" height="3" rx="1.5" fill="#070A12" transform="rotate(-25 18 18)"/>
      <rect x="-2" y="29" width="44" height="3" rx="1.5" fill="#070A12" transform="rotate(-25 18 18)"/>
    </g>

    <!-- outline ring -->
    <circle cx="18" cy="18" r="10.2" fill="none" stroke="#D7E1FF" stroke-opacity="0.18" stroke-width="1.4"/>

    <!-- gloss highlight -->
    <ellipse cx="14.6" cy="14.1" rx="5.8" ry="3.8" fill="#FFFFFF" opacity="0.18"/>
    <circle cx="25.8" cy="24.8" r="1.8" fill="#00E5FF" opacity="0.9" filter="url(#glow)"/>
  </g>

  <!-- wordmark -->
  <g transform="translate(46, 0)" filter="url(#shadow)">
    <!-- subtle glitch layers -->
    <text x="0" y="30" font-size="20" font-weight="800"
      font-family="'LXGW WenKai','Noto Serif SC','Source Han Serif SC','PingFang SC','Hiragino Sans GB','Microsoft YaHei',serif"
      fill="#00E5FF" opacity="0.20" letter-spacing="1.1" transform="translate(-1,0)" filter="url(#glow)">糖果的博客</text>
    <text x="0" y="30" font-size="20" font-weight="800"
      font-family="'LXGW WenKai','Noto Serif SC','Source Han Serif SC','PingFang SC','Hiragino Sans GB','Microsoft YaHei',serif"
      fill="#7C4DFF" opacity="0.16" letter-spacing="1.1" transform="translate(1,0.6)" filter="url(#glow)">糖果的博客</text>

    <!-- main neon text -->
    <text x="0" y="30" font-size="20" font-weight="800"
      font-family="'LXGW WenKai','Noto Serif SC','Source Han Serif SC','PingFang SC','Hiragino Sans GB','Microsoft YaHei',serif"
      fill="url(#neon)" opacity="0.98" letter-spacing="1.1" filter="url(#glow)">糖果的博客</text>

    <!-- scanline underline -->
    <rect x="0" y="36" width="150" height="2" rx="1" fill="#00E5FF" opacity="0.15"/>
    <rect x="0" y="36" width="150" height="2" rx="1" fill="url(#neon)" opacity="0.32" filter="url(#glow)"/>
  </g>
</svg>
